# xmcd
#
# Track frame offsets:
#	150
#	24534
#	37384
#	53994
#	68763
#	86126
#	102006
#	113329
#	129119
#	141909
#	161497
#	193173
#	205385
#
# Disc length: 3005
#
# Revision: 1
# Processed by: cddbd v1.5.1PL0 Copyright (c) Steve Scherf et al.
# Submitted via: CDex 1.50beta10
# Normalized: r0:TDELIM( - )
#
DISCID=b50bbb0d
DTITLE=Various Artist - The Very Best of Blues - CD1 Sunrise
DYEAR=2003
DGENRE=Blues
TTITLE0=Muddy Waters - Mannish Boy
TTITLE1=Canned Heat - Let's Work Together
TTITLE2=Stevie Ray Vaughan - Pride and Joy
TTITLE3=B.B. King - Ain't Nobody Home
TTITLE4=Robben Ford - Up the Line
TTITLE5=Taj Mahal - She Caught the Katy (And Left me a Mule to Ride)
TTITLE6=John Lee Hooker - Boom, Boom
TTITLE7=Eric Burdon and The Animals - Dimples
TTITLE8=Jimmy Reed - Shame, Shame, Shame
TTITLE9=The Robert Cray Band - Right Next Door (Because of Me)
TTITLE10=Junior Wells - Mystery Train
TTITLE11=Little Walter - My Babe
TTITLE12=Jimmy Page and The Black Crowes - Shake your Money Maker
EXTD=YEAR: 2003
EXTT0=
EXTT1=
EXTT2=
EXTT3=
EXTT4=
EXTT5=
EXTT6=
EXTT7=
EXTT8=
EXTT9=
EXTT10=
EXTT11=
EXTT12=
PLAYORDER=
